<svg width="124" height="158" viewBox="0 0 124 158" fill="none" xmlns="http://www.w3.org/2000/svg">
<path d="M71.8629 125.57C71.8629 125.57 71.0223 131.785 70.39 132.311C69.7577 132.838 67.9667 134.629 67.1261 134.841C66.2818 135.051 63.7544 135.261 62.5958 135.155C62.5958 135.155 59.4379 135.367 59.754 134.629C60.0684 133.89 63.0179 126.728 63.8604 125.992C64.7028 125.254 65.8615 124.621 66.4919 124.411C67.1261 124.201 69.3373 122.514 70.178 120.935C70.178 120.935 71.2324 120.303 71.8629 120.725C72.497 121.145 71.8629 125.57 71.8629 125.57ZM116.042 56.7304C116.146 55.8879 115.883 53.991 115.62 53.6237C115.357 53.2527 115.62 52.0959 115.673 51.0414C115.726 49.9888 114.567 48.0407 114.251 47.6716C113.935 47.3024 114.092 44.8792 114.092 44.2469C114.092 43.6164 114.408 42.4559 114.831 41.7725C115.253 41.0872 115.567 38.1906 115.094 37.7173C114.619 37.2421 114.092 36.926 114.092 36.3467C114.092 35.7674 114.831 34.3986 115.094 33.8193C115.357 33.2381 116.305 30.5535 116.305 29.7111C116.305 28.8668 115.2 28.4995 114.778 27.71C114.355 26.9187 115.041 26.1822 115.41 25.3397C115.779 24.4954 113.988 23.3898 113.409 22.9677C112.829 22.5473 112.513 21.862 112.04 20.4933C111.567 19.1245 109.46 18.6493 109.196 17.8069C108.933 16.9644 107.985 16.0689 107.406 15.8588C106.826 15.6486 106.826 15.4366 106.826 15.4366C106.826 13.0134 104.458 14.331 104.615 13.2235C104.774 12.1197 103.034 11.9607 101.667 12.1709C100.297 12.3829 100.139 11.8036 100.139 11.8036C99.9823 8.80103 95.0317 7.48342 90.4502 11.4344C85.8705 15.3854 84.9751 23.653 84.5529 24.1811C84.1326 24.7074 84.4488 27.4468 83.7634 28.2893C83.08 29.1299 83.1841 33.2381 82.974 34.8189C82.7638 36.3997 80.1834 39.9815 79.0248 41.1913C77.8662 42.4048 73.8128 45.1953 71.8629 45.5115C69.9148 45.8276 55.3827 46.9333 52.276 46.0378C49.1693 45.1423 47.4313 42.5089 44.6938 39.0331C41.9562 35.5572 39.692 29.7111 39.3758 28.7096C39.0597 27.71 35.847 21.862 35.2695 20.9136C34.6902 19.9669 31.8466 16.7012 30.741 15.5956C29.6354 14.4882 27.7384 12.8032 26.2637 11.7506C24.7907 10.6961 21.4208 9.06419 20.5254 8.53788C19.6299 8.00973 20.5254 7.37925 20.5254 7.37925C22.1043 7.11609 22.7896 6.22063 22.6855 5.27217C22.5795 4.3237 21.8942 4.3767 21.8412 3.37524C21.7882 2.37561 20.7885 2.42678 20.4212 2.74293C20.0502 3.05909 19.4198 3.6384 18.9464 3.48123C18.4713 3.32407 18.6833 0.741839 18.3141 0.688842C17.945 0.635845 17.6818 3.53423 17.2615 3.53423C16.8394 3.53423 16.8924 2.26961 16.5762 1.6903C16.26 1.11099 15.8909 1.6373 15.4176 3.16508C14.9443 4.69285 14.206 3.6384 13.9958 3.32407C13.7856 3.00792 12.3639 0.162527 11.8375 0.00536383C11.3112 -0.153627 12.1537 3.27107 11.7316 3.74439C11.3112 4.21771 10.3628 2.05945 9.46731 1.7433C8.57367 1.42714 10.0466 4.90301 9.31015 5.21917C8.57367 5.53532 7.99253 4.48087 7.62521 4.11354C7.25606 3.74439 7.46622 5.95564 7.46622 6.64095C7.46622 7.32625 7.46622 7.58941 6.3606 7.16909C5.25497 6.74694 5.78129 8.9052 5.30797 8.64204C4.83465 8.37888 5.25497 10.3288 5.25497 11.4874C5.25497 12.6461 4.4655 13.0682 3.83319 12.8562C3.20271 12.6461 3.7802 14.7513 3.7802 14.7513C3.7802 14.7513 3.88619 15.2795 3.30688 15.5426C2.72757 15.8058 1.04263 17.0174 0.832473 17.2805C0.622313 17.5437 0.306159 18.5963 0.253163 19.2305C0.201993 19.861 2.20125 19.4936 2.41324 19.3876C2.6234 19.2816 4.88765 18.3332 5.94028 18.5963C6.9929 18.8595 7.20306 19.0715 7.0459 19.6508C6.88874 20.2301 5.83428 21.4417 6.57258 24.2853C7.30906 27.1288 10.6259 28.9746 12.2597 29.0788C13.8898 29.1848 14.5239 28.0261 14.6811 27.71C14.8383 27.3938 15.3134 26.8127 16.0499 27.551C16.7864 28.2893 16.8394 30.2904 16.8394 30.8697C16.8394 31.449 15.9439 32.9238 15.8909 34.9249C15.8379 36.926 15.1544 42.3518 15.1544 43.2984C15.1544 44.2469 13.8898 50.4621 12.9962 52.6752C12.1007 54.8865 11.0481 59.9961 11.1522 61.2059C11.2582 62.4193 10.7849 64.9467 9.6263 74.0056C8.46768 83.0644 11.5744 87.7519 12.4699 89.3857C13.3635 91.0176 20.1032 98.3403 21.8942 99.3399C23.6851 100.341 27.5813 99.7091 29.3722 101.606C31.1613 103.501 33.4785 103.238 35.3206 105.133C37.1646 107.03 39.9551 108.348 40.7446 108.821C41.5341 109.294 44.1675 111.295 45.4303 113.035C46.6949 114.773 48.3268 116.089 49.2223 116.405C50.1177 116.721 49.9587 117.143 49.8546 118.775C49.7486 120.409 51.3294 121.988 52.6981 122.62C54.0669 123.253 55.4357 123.306 56.8045 124.201C58.1733 125.096 58.1203 125.411 58.2793 126.412C58.4364 127.414 56.5413 132.944 56.1722 133.786C55.8049 134.629 52.223 142.215 51.8027 142.741C51.3805 143.267 51.1174 144.795 50.9602 144.952C50.803 145.111 49.6956 144.848 49.3283 144.795C48.9591 144.742 46.8009 144.216 46.1156 143.898C45.4303 143.583 44.2205 143.267 43.7453 143.214C43.272 143.161 42.3765 143.53 42.0604 143.634C41.7442 143.74 41.5341 144.216 41.5341 144.216H41.9562C41.9562 144.216 42.1664 144.479 42.4825 144.636C42.7987 144.795 44.9569 144.848 45.3261 145.005C45.6934 145.162 46.8539 145.848 46.7479 146.058C46.6419 146.27 42.6415 146.533 41.2197 146.48C39.7961 146.427 37.6379 146.69 36.7954 146.69C35.953 146.69 35.7428 147.428 34.7432 147.744C33.7417 148.061 33.4256 148.797 33.4256 148.797C33.4256 148.797 34.4252 148.587 34.7432 148.744C35.0575 148.903 35.847 149.113 36.2691 149.007C36.6913 148.903 39.0067 148.956 40.9036 148.903C42.7987 148.85 46.1156 148.903 47.064 148.956C48.0107 149.007 50.2219 147.585 49.8546 147.955C49.4854 148.324 49.3794 149.429 49.6426 150.168C49.9058 150.904 50.4321 151.43 50.5381 151.114C50.6441 150.798 50.8542 150.272 51.2234 150.113C51.5925 149.956 53.8549 147.638 54.3812 147.322C54.9094 147.006 56.4902 146.217 56.9635 146.111C57.4368 146.005 59.542 146.639 60.5435 146.902C61.5431 147.165 62.3856 146.953 62.4386 146.743C62.4916 146.533 64.0705 146.902 64.1235 146.639C64.1765 146.376 63.4401 146.217 63.1769 146.111C62.9137 146.005 62.1224 145.848 60.7537 145.425C59.3849 145.005 58.3834 144.161 57.9631 143.634C57.541 143.108 57.594 142.003 58.2263 139.422C58.8586 136.842 59.4379 136.262 59.4379 136.262C59.9112 136.156 60.3315 136.42 60.7537 136.579C61.1758 136.736 65.5983 136.946 66.2288 136.895C66.8629 136.842 68.9152 136.367 68.8092 136.789C68.7032 137.209 67.7036 138.053 66.9671 138.58C66.2288 139.106 64.913 139.789 63.7032 140.159C62.4916 140.528 61.28 141.423 60.9127 141.58C60.5435 141.739 60.2274 142.215 59.595 142.582C58.9646 142.951 59.2277 144.161 59.2277 144.161C59.2277 144.161 59.595 143.477 60.0684 143.53C60.5435 143.583 61.333 143.424 61.9123 143.371C62.4916 143.32 63.3341 142.109 64.6498 141.897C65.9656 141.686 66.8629 141.213 68.599 140.477C70.337 139.738 71.7587 138.316 72.2851 137.841C72.8114 137.368 75.5489 137.735 76.1282 137.578C76.7094 137.421 77.603 138.686 77.9192 139.475C78.2353 140.265 78.7105 141.37 79.1838 141.58C79.6571 141.792 79.4981 142.794 79.6571 142.794C79.8143 142.794 80.2876 142.794 80.3936 142.109C80.4996 141.423 78.3395 133.68 78.1293 132.417C77.9192 131.153 79.0778 131.1 80.0774 131.416C81.0789 131.732 81.8154 131.732 82.4477 131.626C83.08 131.522 84.4488 131.785 84.4488 131.573C84.4488 131.363 83.5003 130.996 82.974 130.89C82.4477 130.784 80.0774 130.047 79.0778 129.625C78.0763 129.205 77.603 128.625 77.0767 127.361C76.5504 126.096 75.8121 120.146 76.1282 118.985C76.4444 117.827 79.6041 118.355 82.974 117.986C86.3438 117.617 90.6092 115.299 94.8727 112.403C99.1399 109.504 102.035 104.607 103.668 101.973C105.3 99.3399 108.407 92.2822 108.301 88.9635C108.195 85.6448 107.248 83.0644 107.195 82.7482C107.142 82.4339 106.669 81.8016 106.3 80.3268C105.931 78.8521 106.457 77.9036 106.616 77.4284C106.775 76.9551 109.776 73.2673 110.512 72.5308C111.251 71.7943 111.251 67.8433 111.251 67.264C111.251 66.6847 111.514 62.7337 111.881 62.7337C112.25 62.7337 113.988 62.2074 115.304 60.5224C116.62 58.8375 115.936 57.5729 116.042 56.7304Z" fill="black"/>
<path d="M78.8627 131.57C78.8627 131.57 78.0221 137.785 77.3898 138.311C76.7574 138.837 74.9665 140.628 74.1259 140.84C73.2816 141.051 70.7542 141.261 69.5956 141.155C69.5956 141.155 66.4377 141.367 66.7538 140.628C67.0681 139.89 70.0177 132.728 70.8602 131.992C71.7026 131.253 72.8613 130.621 73.4917 130.411C74.1259 130.201 76.3371 128.514 77.1778 126.935C77.1778 126.935 78.2322 126.303 78.8627 126.725C79.4968 127.145 78.8627 131.57 78.8627 131.57ZM123.042 62.7303C123.146 61.8878 122.883 59.9909 122.62 59.6236C122.357 59.2526 122.62 58.0958 122.673 57.0414C122.726 55.9887 121.567 54.0406 121.251 53.6715C120.935 53.3023 121.092 50.8791 121.092 50.2468C121.092 49.6163 121.408 48.4559 121.83 47.7724C122.253 47.0871 122.567 44.1905 122.094 43.7172C121.618 43.2421 121.092 42.9259 121.092 42.3466C121.092 41.7673 121.83 40.3985 122.094 39.8192C122.357 39.2381 123.305 36.5535 123.305 35.711C123.305 34.8667 122.2 34.4994 121.777 33.7099C121.355 32.9186 122.041 32.1822 122.41 31.3397C122.779 30.4954 120.988 29.3898 120.409 28.9676C119.829 28.5473 119.513 27.862 119.04 26.4932C118.567 25.1244 116.459 24.6493 116.196 23.8068C115.933 22.9644 114.985 22.0689 114.405 21.8587C113.826 21.6486 113.826 21.4366 113.826 21.4366C113.826 19.0134 111.458 20.331 111.615 19.2235C111.774 18.1197 110.034 17.9607 108.667 18.1709C107.296 18.3829 107.139 17.8036 107.139 17.8036C106.982 14.801 102.031 13.4834 97.45 17.4344C92.8703 21.3854 91.9749 29.6529 91.5527 30.1811C91.1324 30.7074 91.4486 33.4468 90.7632 34.2893C90.0798 35.1299 90.1839 39.2381 89.9738 40.8188C89.7636 42.3996 87.1832 45.9815 86.0246 47.1913C84.866 48.4047 80.8126 51.1953 78.8627 51.5114C76.9146 51.8276 62.3825 52.9332 59.2758 52.0377C56.1691 51.1423 54.4311 48.5089 51.6936 45.033C48.956 41.5571 46.6918 35.711 46.3756 34.7096C46.0594 33.7099 42.8467 27.862 42.2693 26.9135C41.6899 25.9669 38.8464 22.7012 37.7408 21.5956C36.6351 20.4881 34.7382 18.8032 33.2634 17.7506C31.7905 16.6961 28.4206 15.0642 27.5251 14.5379C26.6297 14.0097 27.5251 13.3792 27.5251 13.3792C29.1041 13.1161 29.7894 12.2206 29.6852 11.2722C29.5792 10.3237 28.8939 10.3767 28.8409 9.37523C28.7879 8.3756 27.7883 8.42677 27.421 8.74293C27.05 9.05908 26.4195 9.63839 25.9462 9.48123C25.4711 9.32407 25.683 6.74184 25.3139 6.68884C24.9447 6.63584 24.6816 9.53423 24.2613 9.53423C23.8391 9.53423 23.8921 8.26961 23.576 7.6903C23.2598 7.11099 22.8907 7.6373 22.4173 9.16507C21.944 10.6928 21.2057 9.63839 20.9956 9.32406C20.7854 9.00791 19.3636 6.16253 18.8373 6.00536C18.311 5.84637 19.1535 9.27107 18.7313 9.74439C18.311 10.2177 17.3625 8.05945 16.4671 7.7433C15.5734 7.42714 17.0464 10.903 16.3099 11.2192C15.5734 11.5353 14.9923 10.4809 14.625 10.1135C14.2558 9.74438 14.466 11.9556 14.466 12.6409C14.466 13.3262 14.466 13.5894 13.3604 13.1691C12.2547 12.7469 12.781 14.9052 12.3077 14.642C11.8344 14.3789 12.2547 16.3288 12.2547 17.4874C12.2547 18.646 11.4653 19.0682 10.833 18.8562C10.2025 18.646 10.78 20.7513 10.78 20.7513C10.78 20.7513 10.8859 21.2794 10.3066 21.5426C9.72733 21.8057 8.04239 23.0174 7.83223 23.2805C7.62207 23.5437 7.30592 24.5963 7.25292 25.2304C7.20175 25.8609 9.20101 25.4936 9.413 25.3876C9.62316 25.2816 11.8874 24.3331 12.94 24.5963C13.9927 24.8595 14.2028 25.0714 14.0457 25.6508C13.8885 26.2301 12.834 27.4417 13.5723 30.2852C14.3088 33.1288 17.6257 34.9746 19.2595 35.0787C20.8896 35.1847 21.5237 34.0261 21.6809 33.7099C21.838 33.3938 22.3132 32.8126 23.0497 33.551C23.7861 34.2893 23.8391 36.2903 23.8391 36.8697C23.8391 37.449 22.9437 38.9237 22.8907 40.9248C22.8377 42.9259 22.1542 48.3517 22.1542 49.2983C22.1542 50.2468 20.8896 56.462 19.9959 58.6751C19.1005 60.8864 18.0478 65.996 18.152 67.2058C18.258 68.4192 17.7847 70.9466 16.6261 80.0055C15.4674 89.0643 18.5742 93.7517 19.4696 95.3855C20.3633 97.0175 27.103 104.34 28.8939 105.34C30.6849 106.341 34.581 105.709 36.372 107.606C38.1611 109.501 40.4783 109.238 42.3204 111.133C44.1643 113.03 46.9549 114.347 47.7444 114.821C48.5339 115.294 51.1672 117.295 52.43 119.035C53.6947 120.773 55.3266 122.089 56.2221 122.405C57.1175 122.721 56.9585 123.143 56.8544 124.775C56.7484 126.409 58.3291 127.988 59.6979 128.62C61.0667 129.252 62.4355 129.305 63.8043 130.201C65.1731 131.096 65.1201 131.411 65.279 132.412C65.4362 133.414 63.5411 138.943 63.172 139.786C62.8046 140.628 59.2228 148.214 58.8025 148.741C58.3803 149.267 58.1172 150.795 57.96 150.952C57.8028 151.111 56.6954 150.848 56.3281 150.795C55.9589 150.742 53.8006 150.215 53.1153 149.897C52.43 149.583 51.2202 149.267 50.7451 149.214C50.2718 149.161 49.3763 149.53 49.0602 149.634C48.744 149.74 48.5339 150.215 48.5339 150.215H48.956C48.956 150.215 49.1662 150.479 49.4823 150.636C49.7985 150.795 51.9567 150.848 52.3259 151.005C52.6932 151.162 53.8536 151.847 53.7476 152.057C53.6417 152.269 49.6413 152.533 48.2195 152.48C46.7959 152.427 44.6377 152.69 43.7952 152.69C42.9527 152.69 42.7426 153.428 41.7429 153.744C40.7415 154.06 40.4253 154.797 40.4253 154.797C40.4253 154.797 41.425 154.587 41.7429 154.744C42.0573 154.903 42.8467 155.113 43.2689 155.007C43.691 154.903 46.0064 154.956 47.9034 154.903C49.7985 154.85 53.1153 154.903 54.0638 154.956C55.0104 155.007 57.2217 153.585 56.8544 153.954C56.4852 154.324 56.3792 155.429 56.6424 156.167C56.9055 156.904 57.4318 157.43 57.5378 157.114C57.6438 156.798 57.854 156.272 58.2231 156.113C58.5923 155.955 60.8547 153.638 61.381 153.322C61.9092 153.006 63.4899 152.216 63.9633 152.11C64.4366 152.004 66.5418 152.639 67.5433 152.902C68.5429 153.165 69.3854 152.953 69.4384 152.743C69.4914 152.533 71.0703 152.902 71.1233 152.639C71.1763 152.375 70.4398 152.216 70.1767 152.11C69.9135 152.004 69.1222 151.847 67.7535 151.425C66.3847 151.005 65.3832 150.161 64.9629 149.634C64.5407 149.108 64.5937 148.002 65.226 145.422C65.8584 142.841 66.4377 142.262 66.4377 142.262C66.911 142.156 67.3313 142.419 67.7535 142.578C68.1756 142.735 72.5981 142.946 73.2286 142.894C73.8627 142.841 75.915 142.366 75.809 142.788C75.703 143.209 74.7034 144.053 73.9669 144.579C73.2286 145.106 71.9128 145.789 70.703 146.158C69.4914 146.528 68.2798 147.423 67.9124 147.58C67.5433 147.739 67.2271 148.214 66.5948 148.582C65.9643 148.951 66.2275 150.161 66.2275 150.161C66.2275 150.161 66.5948 149.477 67.0681 149.53C67.5433 149.583 68.3328 149.424 68.9121 149.371C69.4914 149.32 70.3339 148.108 71.6496 147.896C72.9654 147.686 73.8627 147.213 75.5988 146.476C77.3368 145.738 78.7585 144.316 79.2848 143.841C79.8112 143.368 82.5487 143.735 83.128 143.578C83.7092 143.421 84.6028 144.685 84.919 145.475C85.2351 146.264 85.7103 147.37 86.1836 147.58C86.6569 147.792 86.4979 148.794 86.6569 148.794C86.8141 148.794 87.2874 148.794 87.3934 148.108C87.4994 147.423 85.3393 139.68 85.1291 138.417C84.919 137.153 86.0776 137.1 87.0772 137.416C88.0787 137.732 88.8152 137.732 89.4475 137.626C90.0798 137.522 91.4486 137.785 91.4486 137.573C91.4486 137.363 90.5001 136.995 89.9738 136.889C89.4475 136.783 87.0772 136.047 86.0776 135.625C85.0761 135.204 84.6028 134.625 84.0765 133.361C83.5502 132.096 82.8119 126.146 83.128 124.985C83.4442 123.827 86.6039 124.355 89.9738 123.986C93.3436 123.616 97.609 121.299 101.872 118.403C106.14 115.504 109.034 110.607 110.668 107.973C112.3 105.34 115.407 98.2821 115.301 94.9634C115.195 91.6447 114.248 89.0643 114.195 88.7481C114.142 88.4338 113.669 87.8015 113.3 86.3267C112.931 84.8519 113.457 83.9035 113.616 83.4283C113.775 82.955 116.776 79.2672 117.512 78.5307C118.25 77.7942 118.25 73.8432 118.25 73.2639C118.25 72.6846 118.514 68.7336 118.881 68.7336C119.25 68.7336 120.988 68.2073 122.304 66.5223C123.619 64.8374 122.936 63.5728 123.042 62.7303Z" fill="#A03233"/>
</svg>
