<svg width="246" height="150" viewBox="0 0 246 150" fill="none" xmlns="http://www.w3.org/2000/svg">
<path d="M226.507 83.0298C226.355 82.2714 226.355 81.4352 226.431 80.6767V77.7933C226.355 76.881 226.431 75.9706 226.583 75.0601C227.039 72.631 227.343 70.3557 227.495 68.0026C227.647 66.3319 227.723 64.663 227.798 62.9923L227.95 60.413L228.406 56.8453L228.862 52.2912C228.938 51.9871 228.938 51.6848 228.938 51.4567C228.938 51.1527 228.938 50.8486 228.862 50.6223L228.406 46.2202C228.862 48.2692 229.318 50.3182 229.546 52.3672L230.685 59.8048L230.761 60.7913L230.989 62.9163L231.141 64.511V66.9401L231.065 69.0651L231.293 72.707L231.521 77.2611L231.747 80.6767L231.671 86.4454L231.521 88.4944L231.369 90.3154L230.989 92.5924C230.989 93.0485 231.065 93.5789 231.065 94.035C231.065 94.6414 230.989 95.3238 230.989 96.008V96.2361C230.989 96.6904 231.065 97.1466 231.141 97.5249C231.445 98.3611 231.597 99.1956 231.671 100.106C231.823 101.017 231.899 101.927 232.127 102.839C232.355 103.75 232.507 104.66 232.507 105.647L232.583 107.544C232.583 107.924 232.811 108.302 233.116 108.454C233.57 108.758 234.178 108.986 234.786 108.986C234.862 108.986 234.938 109.062 235.014 109.062C235.469 109.062 235.849 108.91 236.229 108.758C236.989 108.53 237.369 107.848 237.369 107.089V103.294C237.369 101.625 237.217 99.954 236.913 98.2851C236.685 96.9185 236.685 95.4759 236.837 94.035C236.913 93.6549 236.989 93.1988 237.141 92.7445C237.217 92.2883 237.217 91.834 237.217 91.3019C237.217 90.9235 237.141 90.5434 236.913 90.3154C236.457 89.709 236.153 89.1768 235.925 88.4944C235.545 87.66 235.242 86.8237 235.014 85.9133C234.786 85.2309 234.634 84.4724 234.71 83.7122C234.786 82.4977 234.786 81.2831 234.786 80.0703V79.9943C234.786 78.3997 234.938 76.8068 235.166 75.2121C235.394 73.8455 235.545 72.4047 235.545 70.9621V61.3995L235.697 49.2557L235.545 43.8671C235.469 42.9566 235.469 42.0462 235.394 41.1357C235.318 38.1744 234.786 35.367 233.798 32.6338C232.811 29.9784 231.445 27.6253 229.546 25.5003C227.798 23.6033 225.899 21.8584 223.772 20.3398C222.406 19.3533 220.963 18.5188 219.444 17.9107C217.242 17.0002 214.887 16.1658 212.532 15.5576C210.937 15.1032 209.342 14.8752 207.672 14.7992C206.532 14.7231 205.089 14.7231 203.722 14.6471H202.128C199.849 14.6471 197.646 14.7992 195.443 15.1793C194.381 15.4056 193.392 15.5576 192.33 15.7096C190.811 15.9377 189.367 16.0897 187.924 16.2418C184.355 16.6201 180.709 16.9242 177.064 17.1522C170.684 17.4563 163.697 18.0627 156.632 18.7451C153.671 19.1252 151.24 19.3533 148.811 19.5053C148.203 19.5814 147.139 19.6574 146.152 19.7316C145.012 19.8076 144.177 19.8076 143.341 19.6574C142.659 19.5814 141.975 19.5053 141.214 19.4293C138.633 19.0492 136.126 18.8972 133.619 18.8972C126.937 18.8972 120.176 18.4428 113.494 17.4563C106.127 16.3938 98.9101 15.7857 91.5432 15.7857H90.8608C88.9621 15.7857 87.0633 15.7857 85.2389 15.9377C83.2641 16.0897 81.1373 16.3178 79.0123 16.5441C77.1135 16.7721 75.0628 16.9242 72.936 17.0762C70.277 17.3043 67.8462 17.3803 65.4171 17.3043C63.6704 17.2283 61.9219 17.0762 60.0992 16.9242C58.1244 16.7721 56.1515 16.3938 54.1749 15.8617C51.8218 15.2553 49.467 14.4951 47.1882 13.5086C46.2777 13.2045 45.4415 12.7502 44.6052 12.294L43.2387 11.4596L43.8468 10.017C44.0749 9.79068 44.1509 9.4866 44.1509 9.1065V8.87844C43.9989 8.27204 43.6948 7.81592 43.0866 7.58963C42.4042 7.36157 41.644 7.05749 40.8078 6.82943C40.2774 6.60314 39.6692 6.37508 39.1371 6.14702C38.3787 5.76692 37.5424 5.4646 36.708 5.31256C35.8718 5.16052 35.1116 4.7044 34.5812 4.02199L31.5422 0.302312C31.3901 0.150272 31.2381 0.0760202 31.086 0H30.8598C30.6317 0 30.4797 0.150272 30.3276 0.378332C30.2516 0.606392 30.2516 0.834453 30.2516 1.06251C30.2516 1.28881 30.2516 1.51687 30.3276 1.66891L30.7077 2.57938L31.4661 4.62838L32.3784 7.05749H32.3024C31.0118 7.13351 29.8715 7.43759 28.809 7.96796C28.2768 8.27204 27.4406 8.72816 26.6822 9.18252C25.6179 9.71466 25.0115 10.245 24.4794 10.9292C24.2513 11.1555 24.0233 11.3836 23.7192 11.5356C23.3408 11.7637 22.8847 11.8397 22.4286 11.6876C21.7444 11.5356 21.062 11.0795 20.6059 10.4731L17.2645 6.14702C17.0365 5.91896 16.8084 5.76692 16.5043 5.76692C16.4283 5.6909 16.3523 5.6909 16.3523 5.6909C16.0482 5.6909 15.8202 5.84294 15.6699 6.071C15.5178 6.37508 15.4418 6.67916 15.4418 6.98147C15.4418 7.13351 15.4418 7.36157 15.5178 7.58963L16.0482 8.80418L17.0365 11.2315L17.7949 12.7502L18.6311 13.8887L19.2393 14.7992L20.5299 17.0002C20.6059 17.1522 20.6819 17.3043 20.6819 17.4563C20.6819 17.6826 20.6059 17.8347 20.4538 17.9867C19.9217 18.6691 19.3153 19.3533 18.6311 20.0357C18.099 20.5678 17.4166 20.9462 16.7324 21.0982C15.8962 21.3263 15.2138 22.0087 14.9857 22.8449C14.7576 23.6033 14.5296 24.4378 14.4536 25.1962C14.3015 26.4868 13.6951 27.6253 12.8589 28.5358C12.1747 29.144 11.6444 29.8264 11.1882 30.5848C10.428 31.7233 9.6696 32.8619 8.75736 33.9244C8.07318 34.7606 7.54281 35.7471 7.08669 36.6576C6.63057 37.7961 6.02417 38.8586 5.18795 39.6931L0.403993 44.8536C0.327973 45.2337 0.251953 45.6138 0.251953 45.9921C0.251953 46.2962 0.251953 46.5243 0.327973 46.7506C0.480014 47.8148 0.782326 48.8774 1.08641 49.8639C1.39049 50.6983 1.84661 51.3807 2.37875 52.0649C2.90912 52.6713 3.44126 53.2777 4.12544 53.8098C4.80785 54.3402 5.64407 54.7963 6.47853 55.1004C6.85863 55.1764 7.23873 55.2524 7.61883 55.2524C8.22699 55.2524 8.83338 55.1004 9.36552 54.7963C9.89766 54.4922 10.428 54.3402 11.0362 54.1899C11.8724 53.9619 12.7829 53.9619 13.6951 54.1139C14.9857 54.3402 16.1242 54.5683 17.1885 54.7963C16.8084 54.7203 17.4166 54.7203 18.023 54.7203C18.6311 54.7203 19.3153 54.6443 19.9977 54.5683C21.138 54.2659 22.2766 54.0379 23.3408 53.8858C23.9472 53.7338 24.9355 53.4297 25.846 53.0514C26.5301 52.7473 27.2903 52.7473 28.0488 52.9754C28.885 53.2777 29.7195 53.6578 30.5557 54.1139C32.4544 55.1764 34.5052 55.8588 36.632 56.2389C37.3904 56.391 38.1506 56.5412 38.8348 56.6933C39.8213 56.8453 41.0376 56.9974 42.1761 56.9974C43.0106 57.0734 43.8468 57.2254 44.683 57.6038C46.2017 58.364 47.5683 59.5025 48.5565 60.9433C49.8471 62.8421 50.9856 64.8151 51.9739 66.9401C52.7341 68.533 53.6446 70.2036 54.5568 71.7965C55.2392 72.9351 55.8474 74.3016 56.3795 75.6682C57.1379 77.5652 57.8981 79.2341 58.7326 80.9808C59.2647 82.1954 59.7969 83.4099 60.253 84.6987C60.405 85.0788 60.6313 85.4589 60.8594 85.7612C62.9862 88.6465 65.8732 90.7715 69.2145 91.834L71.2653 92.5164L69.1385 94.4134L64.8089 98.2851L62.5301 100.486L60.7074 102.459C60.177 103.294 59.6448 104.204 58.9607 105.04C58.4303 105.875 57.9742 106.557 57.6701 107.317C57.366 108 57.214 108.682 57.214 109.442C57.214 109.745 57.29 110.049 57.29 110.353C57.518 111.491 57.9742 112.554 58.5063 113.54L59.6448 115.437L61.0114 117.258L65.113 121.13L66.9357 122.951L68.6064 124.696L69.5186 125.834L72.2536 129.25L77.0375 134.336L79.5444 136.689L81.5192 138.206L83.1138 139.269L84.2524 139.801L84.8605 139.877C85.5447 141.622 86.6832 143.216 88.0498 144.429C88.582 144.961 89.2661 145.342 90.0246 145.492C90.7088 145.644 91.3169 145.796 91.9993 145.948H92.4555C92.7595 145.948 92.9876 145.948 93.2917 145.872L93.746 145.72L90.1766 133.502C90.0246 133.046 89.7205 132.666 89.1901 132.59L85.923 131.831C85.619 131.679 85.4687 131.377 85.5429 131.149L86.2271 129.1C86.3031 128.948 86.3792 128.644 86.3792 128.416C86.3792 127.733 85.9991 127.125 85.3927 126.823C84.8605 126.519 84.2524 126.291 83.6442 126.062C82.8097 125.912 82.0495 125.456 81.3671 125C80.4549 124.318 79.5444 123.635 78.6322 122.875C77.4176 121.888 76.3533 120.598 75.5949 119.233C74.9107 117.942 74.2266 116.652 73.4681 115.437C72.7839 114.223 72.4799 113.16 72.3278 112.022C72.1758 110.809 72.4799 109.594 73.2401 108.532C73.9985 107.469 75.0628 106.559 76.2013 106.027L80.5309 103.978C81.8215 103.37 83.1138 102.763 84.4804 102.231C85.771 101.777 86.9113 101.094 88.0498 100.334C88.81 99.7277 89.5685 99.2716 90.4047 98.8172C92.0754 97.7547 93.3659 96.3881 94.3542 94.6432L94.8103 93.807L96.709 97.6787L97.4675 99.3476L98.0756 100.638L99.2902 102.383L100.809 104.584L103.088 107.848L104.986 110.885L107.037 114.223L108.025 115.817L110.911 120.902L112.051 123.103L113.494 125.988L114.254 127.733L114.784 129.328C115.164 130.162 115.392 130.997 115.544 131.907C115.62 132.591 115.772 133.274 115.924 134.032C115.924 134.336 116 134.64 116 134.943C116 136.005 115.62 136.992 114.86 137.752L112.429 140.483L112.051 141.091C109.696 141.698 107.949 143.671 107.569 146.1L107.493 146.632H120.48C121.545 145.494 122.153 144.051 122.153 142.532C122.153 141.622 121.925 140.711 121.545 139.877L121.165 139.193C121.089 138.89 121.241 138.662 121.469 138.662H122.987C123.975 138.51 124.582 137.676 124.582 136.765C124.582 136.613 124.582 136.537 124.506 136.385L123.899 133.35L122.835 129.63L121.621 125.152L120.404 120.978L119.646 117.942L118.962 115.135L118.506 113.312L118.051 111.491L117.747 109.822L117.367 108.076L117.063 106.785L116.229 103.598C115.772 102.157 115.24 100.638 114.86 99.1956C114.254 96.9945 113.418 94.7935 112.355 92.8205L111.671 91.5299L117.595 91.3779H118.886C120.556 91.3779 122.379 91.3779 124.128 91.2276C126.937 91.0756 129.9 91.3036 132.785 91.986C136.887 92.8205 140.988 93.2766 145.166 93.3526C145.62 93.4286 146 93.4286 146.456 93.4286C151.014 93.4286 155.494 92.9725 159.899 92.0621C163.013 91.4539 165.292 90.9995 167.57 90.5434L168.026 90.4674C169.697 91.834 171.52 93.0485 173.495 93.959L173.723 94.1111L172.658 100.106C172.734 101.321 173.723 102.307 174.937 102.307C175.925 102.307 176.836 101.777 177.14 100.866L179.039 95.856L181.848 96.4641L181.166 101.397V101.853C181.166 102.307 181.242 102.763 181.47 103.143C181.848 103.75 182.38 104.054 183.064 104.13H183.368C183.823 104.13 184.279 104.054 184.735 103.978C185.343 103.826 185.874 103.37 185.95 102.687L187.014 97.1466L189.595 97.2986C189.747 98.2851 189.823 99.3476 189.823 100.41V100.866C189.823 102.383 189.671 103.826 189.521 105.344C189.369 106.633 189.065 107.848 188.608 108.986C187.546 111.415 186.33 113.92 184.963 116.274L184.051 117.866L182.38 120.826C181.698 122.421 180.709 123.863 179.571 125.152L178.659 126.215L177.596 127.277L174.861 129.554L172.734 131.377L170.077 133.578C169.773 133.804 169.469 134.108 169.165 134.336C167.418 135.929 166.052 137.904 165.139 140.029L164.911 140.711C163.773 141.167 162.709 141.774 161.798 142.456C160.66 143.443 159.747 144.581 159.139 145.948L158.835 146.63H171.748L172.052 146.554L175.773 139.649C175.849 139.421 176.078 139.269 176.304 139.269C176.456 139.269 176.608 139.345 176.684 139.421L177.672 140.255C177.824 140.407 178.052 140.559 178.203 140.559C178.355 140.559 178.431 140.483 178.507 140.483C178.887 140.255 179.267 140.027 179.571 139.725L179.951 139.269L181.394 137.6L182.532 136.081L186.634 129.174C187.242 128.264 187.774 127.505 188.304 126.747C188.837 125.986 189.673 125.076 190.659 124.318L192.786 122.723L200.837 116.728C201.141 116.348 201.443 115.893 201.52 115.361L203.798 105.495L204.254 103.75L205.317 101.169L206.457 99.1956L207.368 98.2851C208.584 100.638 210.179 102.839 211.925 104.736C212.99 105.875 213.976 106.861 214.963 107.848C216.179 109.138 217.242 110.505 218.078 112.098C219.748 115.287 220.963 118.853 221.647 122.421C222.027 124.394 222.331 126.367 222.711 128.34C222.786 129.1 222.862 130.01 222.862 130.921C222.862 131.831 222.786 132.742 222.635 133.654C222.559 134.26 222.331 134.791 221.951 135.247C221.571 135.703 221.191 136.233 220.887 136.765C220.661 137.144 220.585 137.6 220.509 138.13L220.433 139.573L218.988 141.091L217.47 142.456C216.939 143.216 216.635 143.975 216.483 144.809L216.179 146.556H229.09L230.306 144.507C230.609 144.051 230.685 143.519 230.685 142.988C230.685 142.76 230.685 142.456 230.609 142.23C230.533 141.774 230.306 141.243 230.002 140.787C229.85 140.483 229.698 140.105 229.546 139.725C229.394 139.269 229.318 138.814 229.242 138.358C229.242 138.054 229.318 137.752 229.47 137.524C229.698 137.22 230.002 137.068 230.306 136.992L231.749 136.689C231.977 136.689 232.129 136.537 232.281 136.385C232.583 136.005 232.735 135.551 232.735 135.095C232.735 134.792 232.659 134.488 232.583 134.26C232.433 133.956 232.357 133.654 232.281 133.35C231.901 130.541 231.369 127.505 230.761 124.546L230.306 122.04L229.47 115.817C229.318 114.983 229.09 113.996 229.014 113.008C228.862 111.946 228.862 110.959 229.09 109.973C229.47 108.152 229.774 106.255 230.002 104.356C230.23 102.611 230.458 100.94 230.685 99.2716C230.761 98.8155 230.761 98.3611 230.761 97.829V96.6144C230.609 95.3256 230.154 94.1111 229.47 93.1246C229.166 92.5924 228.862 92.0621 228.634 91.4539L227.799 89.0266C227.723 88.7225 227.571 88.4944 227.495 88.2664C226.963 86.5214 226.585 84.7747 226.509 83.0298H226.507Z" fill="black"/>
<path d="M234.507 86.0298C234.355 85.2714 234.355 84.4352 234.431 83.6767V80.7933C234.355 79.881 234.431 78.9706 234.583 78.0601C235.039 75.631 235.343 73.3557 235.495 71.0026C235.647 69.3319 235.723 67.663 235.798 65.9923L235.95 63.413L236.406 59.8453L236.862 55.2912C236.938 54.9871 236.938 54.6848 236.938 54.4567C236.938 54.1527 236.938 53.8486 236.862 53.6223L236.406 49.2202C236.862 51.2692 237.318 53.3182 237.546 55.3672L238.685 62.8048L238.761 63.7913L238.989 65.9163L239.141 67.511V69.9401L239.065 72.0651L239.293 75.707L239.521 80.2611L239.747 83.6767L239.671 89.4454L239.521 91.4944L239.369 93.3154L238.989 95.5924C238.989 96.0485 239.065 96.5789 239.065 97.035C239.065 97.6414 238.989 98.3238 238.989 99.008V99.2361C238.989 99.6904 239.065 100.147 239.141 100.525C239.445 101.361 239.597 102.196 239.671 103.106C239.823 104.017 239.899 104.927 240.127 105.839C240.355 106.75 240.507 107.66 240.507 108.647L240.583 110.544C240.583 110.924 240.811 111.302 241.115 111.454C241.57 111.758 242.178 111.986 242.786 111.986C242.862 111.986 242.938 112.062 243.014 112.062C243.469 112.062 243.849 111.91 244.229 111.758C244.989 111.53 245.369 110.848 245.369 110.089V106.294C245.369 104.625 245.217 102.954 244.913 101.285C244.685 99.9185 244.685 98.4759 244.837 97.035C244.913 96.6549 244.989 96.1988 245.141 95.7445C245.217 95.2883 245.217 94.834 245.217 94.3019C245.217 93.9235 245.141 93.5434 244.913 93.3154C244.457 92.709 244.153 92.1768 243.925 91.4944C243.545 90.66 243.242 89.8237 243.014 88.9133C242.786 88.2309 242.634 87.4724 242.71 86.7122C242.786 85.4977 242.786 84.2831 242.786 83.0703V82.9943C242.786 81.3997 242.938 79.8068 243.166 78.2121C243.394 76.8455 243.545 75.4047 243.545 73.9621V64.3995L243.697 52.2557L243.545 46.8671C243.469 45.9566 243.469 45.0462 243.394 44.1357C243.318 41.1744 242.786 38.367 241.798 35.6338C240.811 32.9784 239.445 30.6253 237.546 28.5003C235.798 26.6033 233.899 24.8584 231.772 23.3398C230.405 22.3533 228.963 21.5188 227.444 20.9107C225.241 20.0002 222.887 19.1658 220.532 18.5576C218.937 18.1032 217.342 17.8752 215.672 17.7992C214.531 17.7231 213.089 17.7231 211.722 17.6471H210.128C207.849 17.6471 205.646 17.7992 203.443 18.1793C202.381 18.4056 201.392 18.5576 200.33 18.7096C198.811 18.9377 197.367 19.0897 195.924 19.2418C192.355 19.6201 188.709 19.9242 185.064 20.1522C178.684 20.4563 171.697 21.0627 164.632 21.7451C161.671 22.1252 159.24 22.3533 156.811 22.5053C156.203 22.5814 155.139 22.6574 154.152 22.7316C153.012 22.8076 152.177 22.8076 151.341 22.6574C150.659 22.5814 149.974 22.5053 149.214 22.4293C146.633 22.0492 144.126 21.8972 141.619 21.8972C134.937 21.8972 128.176 21.4428 121.494 20.4563C114.127 19.3938 106.91 18.7857 99.5432 18.7857H98.8607C96.962 18.7857 95.0633 18.7857 93.2388 18.9377C91.2641 19.0897 89.1373 19.3178 87.0122 19.5441C85.1135 19.7721 83.0627 19.9242 80.9359 20.0762C78.277 20.3043 75.8461 20.3803 73.417 20.3043C71.6703 20.2283 69.9219 20.0762 68.0992 19.9242C66.1244 19.7721 64.1514 19.3938 62.1749 18.8617C59.8218 18.2553 57.467 17.4951 55.1881 16.5086C54.2777 16.2045 53.4414 15.7502 52.6052 15.294L51.2386 14.4596L51.8468 13.017C52.0748 12.7907 52.1509 12.4866 52.1509 12.1065V11.8784C51.9988 11.272 51.6947 10.8159 51.0866 10.5896C50.4042 10.3616 49.644 10.0575 48.8078 9.82943C48.2774 9.60314 47.6692 9.37508 47.1371 9.14702C46.3786 8.76692 45.5424 8.4646 44.708 8.31256C43.8718 8.16052 43.1116 7.7044 42.5812 7.02199L39.5421 3.30231C39.3901 3.15027 39.2381 3.07602 39.086 3H38.8597C38.6317 3 38.4796 3.15027 38.3276 3.37833C38.2516 3.60639 38.2516 3.83445 38.2516 4.06251C38.2516 4.28881 38.2516 4.51687 38.3276 4.66891L38.7077 5.57938L39.4661 7.62838L40.3784 10.0575H40.3023C39.0118 10.1335 37.8715 10.4376 36.809 10.968C36.2768 11.272 35.4406 11.7282 34.6822 12.1825C33.6179 12.7147 33.0115 13.245 32.4794 13.9292C32.2513 14.1555 32.0232 14.3836 31.7192 14.5356C31.3408 14.7637 30.8847 14.8397 30.4286 14.6876C29.7444 14.5356 29.062 14.0795 28.6059 13.4731L25.2645 9.14702C25.0365 8.91896 24.8084 8.76692 24.5043 8.76692C24.4283 8.6909 24.3523 8.6909 24.3523 8.6909C24.0482 8.6909 23.8201 8.84294 23.6699 9.071C23.5178 9.37508 23.4418 9.67916 23.4418 9.98147C23.4418 10.1335 23.4418 10.3616 23.5178 10.5896L24.0482 11.8042L25.0365 14.2315L25.7949 15.7502L26.6311 16.8887L27.2393 17.7992L28.5299 20.0002C28.6059 20.1522 28.6819 20.3043 28.6819 20.4563C28.6819 20.6826 28.6059 20.8347 28.4538 20.9867C27.9217 21.6691 27.3153 22.3533 26.6311 23.0357C26.099 23.5678 25.4166 23.9462 24.7324 24.0982C23.8962 24.3263 23.2138 25.0087 22.9857 25.8449C22.7576 26.6033 22.5296 27.4378 22.4536 28.1962C22.3015 29.4868 21.6951 30.6253 20.8589 31.5358C20.1747 32.144 19.6443 32.8264 19.1882 33.5848C18.428 34.7233 17.6696 35.8619 16.7574 36.9244C16.0732 37.7606 15.5428 38.7471 15.0867 39.6576C14.6306 40.7961 14.0242 41.8586 13.188 42.6931L8.40399 47.8536C8.32797 48.2337 8.25195 48.6138 8.25195 48.9921C8.25195 49.2962 8.25195 49.5243 8.32797 49.7506C8.48001 50.8148 8.78233 51.8774 9.08641 52.8639C9.39049 53.6983 9.84661 54.3807 10.3787 55.0649C10.9091 55.6713 11.4413 56.2777 12.1254 56.8098C12.8079 57.3402 13.6441 57.7963 14.4785 58.1004C14.8586 58.1764 15.2387 58.2524 15.6188 58.2524C16.227 58.2524 16.8334 58.1004 17.3655 57.7963C17.8977 57.4922 18.428 57.3402 19.0362 57.1899C19.8724 56.9619 20.7829 56.9619 21.6951 57.1139C22.9857 57.3402 24.1242 57.5683 25.1885 57.7963C24.8084 57.7203 25.4166 57.7203 26.023 57.7203C26.6311 57.7203 27.3153 57.6443 27.9977 57.5683C29.138 57.2659 30.2765 57.0379 31.3408 56.8858C31.9472 56.7338 32.9355 56.4297 33.846 56.0514C34.5301 55.7473 35.2903 55.7473 36.0488 55.9754C36.885 56.2777 37.7194 56.6578 38.5557 57.1139C40.4544 58.1764 42.5052 58.8588 44.632 59.2389C45.3904 59.391 46.1506 59.5412 46.8348 59.6933C47.8213 59.8453 49.0376 59.9974 50.1761 59.9974C51.0106 60.0734 51.8468 60.2254 52.683 60.6038C54.2016 61.364 55.5682 62.5025 56.5565 63.9433C57.8471 65.8421 58.9856 67.8151 59.9739 69.9401C60.7341 71.533 61.6445 73.2036 62.5568 74.7965C63.2392 75.9351 63.8473 77.3016 64.3795 78.6682C65.1379 80.5652 65.8981 82.2341 66.7326 83.9808C67.2647 85.1954 67.7968 86.4099 68.253 87.6987C68.405 88.0788 68.6313 88.4589 68.8594 88.7612C70.9862 91.6465 73.8731 93.7715 77.2145 94.834L79.2653 95.5164L77.1385 97.4134L72.8089 101.285L70.53 103.486L68.7073 105.459C68.1769 106.294 67.6448 107.204 66.9606 108.04C66.4303 108.875 65.9741 109.557 65.6701 110.317C65.366 111 65.2139 111.682 65.2139 112.442C65.2139 112.745 65.29 113.049 65.29 113.353C65.518 114.491 65.9741 115.554 66.5063 116.54L67.6448 118.437L69.0114 120.258L73.1129 124.13L74.9357 125.951L76.6063 127.696L77.5186 128.834L80.2535 132.25L85.0375 137.336L87.5444 139.689L89.5191 141.206L91.1138 142.269L92.2523 142.801L92.8605 142.877C93.5447 144.622 94.6832 146.216 96.0498 147.429C96.5819 147.961 97.2661 148.342 98.0245 148.492C98.7087 148.644 99.3169 148.796 99.9993 148.948H100.455C100.759 148.948 100.988 148.948 101.292 148.872L101.746 148.72L98.1766 136.502C98.0245 136.046 97.7204 135.666 97.1901 135.59L93.923 134.831C93.6189 134.679 93.4686 134.377 93.5429 134.149L94.2271 132.1C94.3031 131.948 94.3791 131.644 94.3791 131.416C94.3791 130.733 93.999 130.125 93.3926 129.823C92.8605 129.519 92.2523 129.291 91.6442 129.062C90.8097 128.912 90.0495 128.456 89.3671 128C88.4548 127.318 87.5444 126.635 86.6321 125.875C85.4176 124.888 84.3533 123.598 83.5949 122.233C82.9107 120.942 82.2265 119.652 81.4681 118.437C80.7839 117.223 80.4798 116.16 80.3278 115.022C80.1757 113.809 80.4798 112.594 81.24 111.532C81.9984 110.469 83.0627 109.559 84.2013 109.027L88.5309 106.978C89.8214 106.37 91.1138 105.763 92.4804 105.231C93.7709 104.777 94.9112 104.094 96.0498 103.334C96.81 102.728 97.5684 102.272 98.4046 101.817C100.075 100.755 101.366 99.3881 102.354 97.6432L102.81 96.807L104.709 100.679L105.467 102.348L106.076 103.638L107.29 105.383L108.809 107.584L111.088 110.848L112.986 113.885L115.037 117.223L116.025 118.817L118.911 123.902L120.051 126.103L121.494 128.988L122.254 130.733L122.784 132.328C123.164 133.162 123.392 133.997 123.544 134.907C123.62 135.591 123.772 136.274 123.924 137.032C123.924 137.336 124 137.64 124 137.943C124 139.005 123.62 139.992 122.86 140.752L120.429 143.483L120.051 144.091C117.696 144.698 115.949 146.671 115.569 149.1L115.493 149.632H128.48C129.545 148.494 130.153 147.051 130.153 145.532C130.153 144.622 129.925 143.711 129.545 142.877L129.164 142.193C129.088 141.89 129.24 141.662 129.469 141.662H130.987C131.975 141.51 132.582 140.676 132.582 139.765C132.582 139.613 132.582 139.537 132.506 139.385L131.899 136.35L130.835 132.63L129.621 128.152L128.404 123.978L127.646 120.942L126.962 118.135L126.506 116.312L126.051 114.491L125.747 112.822L125.367 111.076L125.063 109.785L124.228 106.598C123.772 105.157 123.24 103.638 122.86 102.196C122.254 99.9945 121.417 97.7935 120.355 95.8205L119.671 94.5299L125.595 94.3779H126.886C128.556 94.3779 130.379 94.3779 132.127 94.2276C134.937 94.0756 137.9 94.3036 140.785 94.986C144.886 95.8205 148.988 96.2766 153.166 96.3526C153.62 96.4286 154 96.4286 154.456 96.4286C159.014 96.4286 163.494 95.9725 167.899 95.0621C171.013 94.4539 173.291 93.9995 175.57 93.5434L176.026 93.4674C177.697 94.834 179.52 96.0485 181.495 96.959L181.723 97.1111L180.658 103.106C180.734 104.321 181.723 105.307 182.937 105.307C183.925 105.307 184.836 104.777 185.14 103.866L187.039 98.856L189.848 99.4641L189.165 104.397V104.853C189.165 105.307 189.241 105.763 189.47 106.143C189.848 106.75 190.38 107.054 191.064 107.13H191.368C191.823 107.13 192.279 107.054 192.735 106.978C193.343 106.826 193.873 106.37 193.949 105.687L195.014 100.147L197.595 100.299C197.747 101.285 197.823 102.348 197.823 103.41V103.866C197.823 105.383 197.671 106.826 197.521 108.344C197.369 109.633 197.064 110.848 196.608 111.986C195.546 114.415 194.33 116.92 192.963 119.274L192.051 120.866L190.38 123.826C189.698 125.421 188.709 126.863 187.571 128.152L186.659 129.215L185.596 130.277L182.861 132.554L180.734 134.377L178.077 136.578C177.773 136.804 177.469 137.108 177.165 137.336C175.418 138.929 174.052 140.904 173.139 143.029L172.911 143.711C171.773 144.167 170.709 144.774 169.798 145.456C168.66 146.443 167.747 147.581 167.139 148.948L166.835 149.63H179.748L180.052 149.554L183.773 142.649C183.849 142.421 184.077 142.269 184.304 142.269C184.456 142.269 184.608 142.345 184.684 142.421L185.672 143.255C185.824 143.407 186.052 143.559 186.202 143.559C186.354 143.559 186.431 143.483 186.507 143.483C186.887 143.255 187.267 143.027 187.571 142.725L187.951 142.269L189.394 140.6L190.532 139.081L194.634 132.174C195.242 131.264 195.774 130.505 196.304 129.747C196.836 128.986 197.673 128.076 198.659 127.318L200.786 125.723L208.837 119.728C209.141 119.348 209.443 118.893 209.519 118.361L211.798 108.495L212.254 106.75L213.317 104.169L214.457 102.196L215.368 101.285C216.584 103.638 218.179 105.839 219.925 107.736C220.99 108.875 221.976 109.861 222.963 110.848C224.179 112.138 225.241 113.505 226.078 115.098C227.748 118.287 228.963 121.853 229.647 125.421C230.027 127.394 230.331 129.367 230.711 131.34C230.786 132.1 230.862 133.01 230.862 133.921C230.862 134.831 230.786 135.742 230.635 136.654C230.559 137.26 230.331 137.791 229.951 138.247C229.571 138.703 229.191 139.233 228.887 139.765C228.661 140.144 228.585 140.6 228.508 141.13L228.432 142.573L226.988 144.091L225.469 145.456C224.939 146.216 224.635 146.975 224.483 147.809L224.179 149.556H237.09L238.306 147.507C238.609 147.051 238.685 146.519 238.685 145.988C238.685 145.76 238.685 145.456 238.609 145.23C238.533 144.774 238.306 144.243 238.002 143.787C237.85 143.483 237.698 143.105 237.546 142.725C237.394 142.269 237.318 141.814 237.242 141.358C237.242 141.054 237.318 140.752 237.47 140.524C237.698 140.22 238.002 140.068 238.306 139.992L239.749 139.689C239.977 139.689 240.129 139.537 240.281 139.385C240.583 139.005 240.735 138.551 240.735 138.095C240.735 137.792 240.659 137.488 240.583 137.26C240.433 136.956 240.357 136.654 240.281 136.35C239.901 133.541 239.369 130.505 238.761 127.546L238.306 125.04L237.47 118.817C237.318 117.983 237.09 116.996 237.014 116.008C236.862 114.946 236.862 113.959 237.09 112.973C237.47 111.152 237.774 109.255 238.002 107.356C238.23 105.611 238.458 103.94 238.685 102.272C238.761 101.815 238.761 101.361 238.761 100.829V99.6144C238.609 98.3256 238.154 97.1111 237.47 96.1246C237.166 95.5924 236.862 95.0621 236.634 94.4539L235.799 92.0266C235.723 91.7225 235.571 91.4944 235.495 91.2664C234.963 89.5214 234.585 87.7747 234.509 86.0298H234.507Z" fill="#A03233"/>
</svg>
