<svg width="279" height="125" viewBox="0 0 279 125" fill="none" xmlns="http://www.w3.org/2000/svg">
<path d="M271.252 19.7428C267.035 18.5429 262.631 17.8731 258.03 17.8248C239.408 17.6387 223.135 35.8927 214.62 50.7199C154.16 24.697 132.225 24.6188 111.777 20.5911C119.699 4.55288 138.807 3.08133 138.807 3.08133C104.715 -7.42047 85.0845 11.7525 79.5108 18.4015C72.127 18.7103 64.959 19.4842 58.1946 20.6563C63.2362 28.014 67.1281 36.2424 69.4555 44.4225C76.151 68.0548 68.7206 89.7467 54.1055 107.623C64.6166 109.896 76.0859 111.225 88.1355 111.34C90.5 111.368 92.8106 111.295 95.1231 111.165C107.509 117.262 127.276 122.275 149.721 110.229C149.721 110.229 138.021 111.225 126.588 104.792C139.99 100.131 165.055 101.994 213.212 78.7333C221.111 94.6897 237.711 114.114 257.063 114.315C261.66 114.354 266.08 113.762 270.324 112.642C249.61 106.777 234.56 87.9831 234.781 65.8391C234.997 43.6858 250.425 25.1956 271.252 19.7428Z" fill="black"/>
<path d="M38.7054 52.4464C38.678 55.6139 36.1198 58.1386 32.975 58.1047C29.8375 58.0671 27.3286 55.4917 27.3615 52.3298C27.3907 49.1867 29.9471 46.6507 33.0828 46.6846C36.2294 46.7184 38.7328 49.3032 38.7054 52.4464ZM55.0489 21C30.2578 26.2223 11.1587 37.2307 3.56622 50.9143H3.66673C3.66673 50.9143 3.26472 51.4895 2.72749 52.514C1.85221 54.3262 1.14686 56.176 0.693691 58.0709H0.684554C-0.099362 61.3663 -0.402696 65.658 0.830739 70.619C5.05183 86.5828 24.3939 100.133 51.0507 107C65.9451 88.8856 73.8336 66.4419 65.7971 42.5658C63.2827 35.1084 59.661 27.6547 55.0489 21Z" fill="black"/>
<path d="M278.252 26.7428C274.035 25.5428 269.631 24.8731 265.03 24.8247C246.408 24.6387 230.135 42.8926 221.62 57.7198C161.16 31.6969 139.224 31.6188 118.777 27.5911C126.698 11.5529 145.806 10.0813 145.806 10.0813C111.715 -0.420457 92.0844 18.7525 86.5107 25.4014C79.1269 25.7103 71.9588 26.4842 65.1945 27.6562C70.2361 35.014 74.128 43.2424 76.4554 51.4224C83.1508 75.0547 75.7205 96.7466 61.1054 114.623C71.6165 116.896 83.0857 118.225 95.1354 118.34C97.4999 118.368 99.8105 118.295 102.123 118.165C114.509 124.261 134.276 129.275 156.721 117.229C156.721 117.229 145.021 118.225 133.587 111.791C146.99 107.131 172.054 108.993 220.212 85.7332C228.111 101.69 244.711 121.114 264.063 121.315C268.66 121.354 273.08 120.762 277.324 119.642C256.61 113.776 241.56 94.9829 241.781 72.839C241.997 50.6857 257.425 32.1955 278.252 26.7428Z" fill="#A03233"/>
<path d="M43.7054 59.4464C43.6779 62.6139 41.1197 65.1386 37.9749 65.1047C34.8374 65.0671 32.3285 62.4917 32.3614 59.3298C32.3906 56.1867 34.947 53.6507 38.0827 53.6846C41.2293 53.7184 43.7328 56.3032 43.7054 59.4464ZM60.0489 28C35.2577 33.2223 16.1586 44.2307 8.56611 57.9143H8.66661C8.66661 57.9143 8.2646 58.4895 7.72737 59.514C6.85209 61.3262 6.14674 63.176 5.69357 65.0709H5.68443C4.90052 68.3663 4.59718 72.658 5.83062 77.619C10.0517 93.5828 29.3938 107.133 56.0507 114C70.9451 95.8856 78.8336 73.4419 70.7971 49.5658C68.2827 42.1084 64.661 34.6547 60.0489 28Z" fill="#A03233"/>
</svg>
