<svg width="308" height="145" viewBox="0 0 308 145" fill="none" xmlns="http://www.w3.org/2000/svg">
<path d="M269.952 40.4055C266.955 36.8006 263.934 33.776 260.623 31.0668C263.014 28.6467 265.142 26.2529 266.036 25.0419C268.164 21.1236 266.64 9.65404 264.223 7.86476C262.725 6.65573 260.912 8.44299 257.915 10.8631C257.915 8.75839 257.599 6.65573 256.417 4.84016C254.893 2.42008 247.352 10.8631 241.36 18.7036C237.13 16.888 232.924 15.7032 228.694 15.0987C215.134 13.2832 150.986 0 91.3591 0C63.9508 0 47.6829 3.62911 32.0213 15.9944C30.8127 16.888 29.6041 18.097 28.3954 19.9126C25.4002 23.2283 18.777 29.2512 11.8385 28.3576C7.31931 27.7531 7.03029 24.122 8.23891 21.4128C10.0256 17.8079 15.1511 17.8079 19.6703 19.5972C22.9809 20.8083 24.4785 15.677 18.777 13.5743C11.8385 10.8631 4.61304 13.5743 2.19579 18.097C-0.801512 23.2283 -0.512493 30.4623 4.32402 33.4869C10.0256 37.0897 16.3597 36.4852 21.7723 34.3805C20.5636 38.5899 19.6703 43.43 19.6703 48.5593C17.8574 74.4706 33.519 86.2293 26.0045 94.0698C15.7554 104.328 28.3954 109.142 27.7911 118.507C27.2131 126.03 27.2131 129.346 29.6041 129.055C34.1233 128.135 34.1233 128.135 36.2252 134.475C36.5405 136.58 37.4359 139 40.4574 139H53.0975C53.0975 132.975 44.6613 131.449 40.7465 112.456C38.6445 102.224 45.87 93.1741 53.7018 86.5447C54.3061 86.8358 55.1994 86.8358 55.8037 87.1512C55.1994 91.0695 54.3061 94.0698 59.1143 100.093C62.4269 104.013 62.7422 120.901 63.3465 127.241C63.6355 129.661 68.1547 126.03 68.47 129.055C69.3634 134.186 70.2567 138.711 72.0716 138.711H86.5246C86.5246 135.973 79.2971 129.661 77.1952 121.216C74.1736 109.747 76.9061 102.513 80.821 95.5942L73.5956 92.2805C72.9913 91.9651 73.2803 90.7541 74.1736 91.0695L82.6077 93.1741C85.027 93.7807 87.4442 94.3852 90.1505 95.2788H90.4395C93.4611 96.1745 96.7737 97.0944 100.084 98.3034C115.746 103.435 138.031 101.908 163.941 92.5696C165.152 100.408 166.65 111.851 166.36 114.876C165.441 119.401 162.128 126.03 166.36 130.844C167.543 132.055 169.356 130.555 169.96 131.449C169.96 132.66 170.275 133.58 170.564 134.475C171.169 136.895 173.875 138.685 176.583 138.685H188.039C184.413 131.449 181.707 131.449 180.813 124.821C179.29 115.193 182.311 102.224 187.435 92.8587C191.956 105.537 196.475 120.901 195.266 123.61C193.769 126.346 195.555 132.66 199.181 129.95C200.392 129.055 200.996 131.449 200.996 134.186C200.996 136.291 203.098 139 204.885 139H218.76C216.947 134.791 212.743 131.766 210.008 120.612C208.826 115.193 207.906 101.908 210.639 89.8604C227.196 89.8604 233.817 79.6019 243.147 78.7062C248.876 78.1017 257.31 78.3908 263.014 77.1798C277.782 74.1815 288.347 72.6833 290.449 66.9475C291.342 64.2383 297.072 63.9229 296.152 63.9229V48.5593C285.614 48.5593 279.595 51.5597 269.952 40.4055Z" fill="black"/>
<path d="M280.953 46.4055C277.955 42.8006 274.934 39.776 271.623 37.0668C274.014 34.6467 276.143 32.2529 277.036 31.0419C279.164 27.1236 277.64 15.654 275.223 13.8648C273.725 12.6557 271.912 14.443 268.915 16.8631C268.915 14.7584 268.6 12.6557 267.417 10.8402C265.893 8.42008 258.353 16.8631 252.36 24.7036C248.13 22.888 243.924 21.7032 239.694 21.0987C226.134 19.2832 161.986 6 102.359 6C74.9511 6 58.6831 9.62911 43.0216 21.9944C41.8129 22.888 40.6043 24.097 39.3957 25.9126C36.4004 29.2283 29.7772 35.2512 22.8388 34.3576C18.3196 33.7531 18.0305 30.122 19.2392 27.4128C21.0258 23.8079 26.1514 23.8079 30.6706 25.5972C33.9811 26.8083 35.4788 21.677 29.7772 19.5743C22.8388 16.8631 15.6133 19.5743 13.196 24.097C10.1987 29.2283 10.4878 36.4623 15.3243 39.4869C21.0258 43.0897 27.36 42.4852 32.7725 40.3805C31.5639 44.5899 30.6706 49.43 30.6706 54.5593C28.8576 80.4706 44.5192 92.2293 37.0047 100.07C26.7557 110.328 39.3957 115.142 38.7914 124.507C38.2133 132.03 38.2133 135.346 40.6043 135.055C45.1235 134.135 45.1235 134.135 47.2255 140.475C47.5408 142.58 48.4361 145 51.4577 145H64.0977C64.0977 138.975 55.6616 137.449 51.7467 118.456C49.6447 108.224 56.8702 99.1741 64.702 92.5447C65.3063 92.8358 66.1997 92.8358 66.804 93.1512C66.1997 97.0695 65.3063 100.07 70.1146 106.093C73.4272 110.013 73.7424 126.901 74.3468 133.241C74.6358 135.661 79.155 132.03 79.4703 135.055C80.3636 140.186 81.2569 144.711 83.0719 144.711H97.5248C97.5248 141.973 90.2974 135.661 88.1954 127.216C85.1738 115.747 87.9064 108.513 91.8213 101.594L84.5958 98.2805C83.9915 97.9651 84.2805 96.7541 85.1738 97.0695L93.6079 99.1741C96.0272 99.7807 98.4445 100.385 101.151 101.279H101.44C104.461 102.174 107.774 103.094 111.084 104.303C126.746 109.435 149.031 107.908 174.941 98.5696C176.152 106.408 177.65 117.851 177.361 120.876C176.441 125.401 173.129 132.03 177.361 136.844C178.543 138.055 180.356 136.555 180.96 137.449C180.96 138.66 181.276 139.58 181.565 140.475C182.169 142.895 184.875 144.685 187.584 144.685H199.039C195.413 137.449 192.707 137.449 191.814 130.821C190.29 121.193 193.311 108.224 198.435 98.8587C202.956 111.537 207.475 126.901 206.267 129.61C204.769 132.346 206.556 138.66 210.182 135.95C211.392 135.055 211.996 137.449 211.996 140.186C211.996 142.291 214.098 145 215.885 145H229.76C227.947 140.791 223.743 137.766 221.009 126.612C219.826 121.193 218.907 107.908 221.639 95.8604C238.196 95.8604 244.817 85.6019 254.147 84.7062C259.877 84.1017 268.311 84.3908 274.014 83.1798C288.783 80.1815 299.347 78.6833 301.449 72.9475C302.342 70.2383 308.072 69.9229 307.152 69.9229V54.5593C296.614 54.5593 290.595 57.5597 280.953 46.4055Z" fill="#A03233"/>
</svg>
