<svg width="150" height="209" viewBox="0 0 150 209" fill="none" xmlns="http://www.w3.org/2000/svg">
<path d="M66.7945 177.303C66.7945 177.303 66.7036 191.006 65.9804 192.097C65.2572 193.184 61.5503 196.998 61.5503 196.998C61.5503 196.998 63.538 184.201 66.7945 177.303ZM6.74651 173.944C6.74651 173.944 11.0886 177.031 15.79 176.486C15.79 176.486 5.66248 162.328 12.353 147.806C12.353 147.806 22.1212 158.88 32.7915 157.427C32.7915 157.427 46.7184 158.153 53.7728 160.513C60.8257 162.872 62.8163 160.148 62.8163 160.148C62.8163 160.148 61.6398 163.145 62.8163 165.595C63.9913 168.046 61.0971 186.288 55.7604 198.631C55.7604 198.631 52.6873 204.166 48.4361 204.258C48.4361 204.258 46.1413 203.656 45.7358 204.508C45.7358 204.508 47.2269 204.644 47.8024 204.78C48.3795 204.916 48.9565 206.413 51.1619 205.221C53.3642 204.03 56.0452 202.398 56.0452 202.398C56.0452 202.398 57.4647 203.89 58.3713 205.483C59.2719 207.064 59.6567 208.746 59.9787 209C59.9787 209 61.1224 208.826 60.3038 207.015C59.4762 205.179 59.3808 203.665 59.9101 203.181C60.2471 202.872 62.9967 204.609 63.2681 205.188C63.2681 205.188 64.0136 206.038 63.878 206.379C63.878 206.379 64.2507 205.698 64.0479 204.678C64.0479 204.678 68.5138 198.995 68.7389 198.176C68.9641 197.36 72.1297 198.314 71.994 193.05C71.994 193.05 73.3509 191.778 74.6616 193.639C75.9737 195.5 77.8734 194.637 77.8734 194.637L79.2735 195.409C79.2735 195.409 79.7716 194.366 78.0091 193.549C76.2451 192.733 72.1297 189.555 71.8136 188.738C71.4975 187.921 70.9994 180.615 70.9994 180.615L75.5204 180.072C75.5204 180.072 76.2451 179.436 76.8773 179.981C76.8773 179.981 76.2451 178.438 75.2043 179.026C74.165 179.617 70.9994 178.8 70.91 178.39C70.819 177.984 71.5869 158.063 71.5869 158.063C71.5869 158.063 80.7214 155.793 84.9725 148.261L104.504 157.064C104.504 157.064 112.193 156.881 112.282 152.707C112.373 148.533 118.883 153.162 119.606 149.259C120.331 145.356 118.976 140.002 119.245 138.73C119.517 137.46 125.395 132.74 123.857 129.02C122.32 125.298 117.799 115.496 117.799 115.496C117.799 115.496 126.3 119.309 126.934 115.768C126.934 115.768 132.178 119.128 132.36 113.318C132.36 113.318 138.236 110.05 135.433 106.33C132.63 102.609 138.056 105.785 138.87 104.243C139.684 102.701 143.119 99.0698 138.147 96.5281C138.147 96.5281 147.731 98.0704 146.014 94.9857C144.296 91.8994 142.578 90.4468 142.578 90.4468C142.578 90.4468 149.631 90.4468 148.185 88.4512C146.737 86.454 143.21 84.0036 143.21 84.0036C143.21 84.0036 134.62 87.8154 131.726 90.3556C128.832 92.8988 125.847 91.0826 125.486 89.9935C125.125 88.9045 124.852 87.2708 124.852 87.2708C124.852 87.2708 136.609 80.1005 142.035 79.6472C147.461 79.1925 151.892 72.8405 149.179 67.5761C146.465 62.3131 144.748 63.311 144.748 63.311C144.748 63.311 149.179 58.3188 145.744 53.3282C142.305 48.3361 141.311 48.6068 141.311 48.6068C141.311 48.6068 143.301 44.3417 139.593 39.6234L136.97 36.9007C136.97 36.9007 137.332 28.6413 130.64 26.6456C130.64 26.6456 131.364 21.0177 125.847 18.4775C125.847 18.4775 123.495 10.6714 117.074 11.3969C117.074 11.3969 114.905 3.50256 107.579 5.68073C107.579 5.68073 104.504 -0.0384603 98.8084 2.41198C98.8084 2.41198 93.3823 -1.94436 89.1312 1.05212C89.1312 1.05212 86.3279 0.235306 83.2533 2.95652C83.2533 2.95652 78.279 4.04561 76.1094 8.67422C76.1094 8.67422 71.5869 10.7626 70.0511 16.4803C70.0511 16.4803 69.146 13.8489 67.3373 16.0255C65.5286 18.2037 63.9003 20.8367 63.2681 24.1039C62.6344 27.3712 60.6452 25.012 58.2043 32.1808C55.7604 39.3511 48.709 44.6155 51.4213 55.5961C51.4213 55.5961 42.7401 64.4913 42.7401 65.7614C42.7401 67.0315 38.3981 60.8605 23.3857 78.4669C23.3857 78.4669 18.5933 79.5575 21.0357 72.1134C23.4781 64.6723 33.968 55.3238 28.2705 47.3382C22.573 39.3511 10.4549 39.7131 7.83203 49.8784C5.20919 60.0437 4.57696 72.9302 3.85378 74.7449C3.85378 74.7449 8.01394 68.9374 8.73713 59.7714L14.3437 57.8655C14.3437 57.8655 6.65704 71.5704 5.93237 81.6429C5.93237 81.6429 2.6773 91.0826 5.93237 91.9892C5.93237 91.9892 6.20524 101.701 4.93781 104.786C3.67336 107.872 1.13998 124.844 3.40049 130.017C5.66248 135.191 -7.5412 156.881 6.74651 173.944Z" fill="#A03233"/>
</svg>
