<svg style="display: none;" xmlns="http://www.w3.org/2000/svg">
<symbol id="arrow-rounded" viewBox="0 0 18 12"><path d="M8.356 11.363a1.241 1.241 0 0 0 1.74 0l7.172-7.172c.528-.527.528-1.318 0-1.793l-1.16-1.212c-.527-.475-1.318-.475-1.793 0L9.2 6.3 4.138 1.186c-.475-.475-1.266-.475-1.793 0l-1.16 1.212c-.528.475-.528 1.266 0 1.793l7.171 7.172Z"/></symbol>
<symbol id="burger" viewBox="0 0 33 22"><path d="M0 0h33v4H0zM0 9h33v4H0zM0 18h33v4H0z"/></symbol>
<symbol id="chicken-decor" viewBox="0 0 199 79"><path d="m1.982 16 12.472 50.5L40.357 71l58.522-4.5 41.253 11 57.563-11V16L149.726 2 98.879 9.5l-62.839-4L1.982 16Z" stroke-opacity=".58" stroke-linecap="round"/></symbol>
<symbol id="cow-decor" viewBox="0 0 230 95"><path d="M71.4 2 1.365 15.5 4.243 75l50.367 8.5 52.286-4.5 70.994 14 50.367-18V22.5L201.395 2l-62.359 13.5h-45.57L71.4 2Z" stroke-opacity=".58" stroke-linecap="round"/></symbol>
<symbol id="fb" viewBox="0 0 16 28"><path d="m14.098 15.715.738-4.852h-4.693V7.7c0-1.37.632-2.636 2.742-2.636h2.162V.896S13.096.527 11.25.527C7.4.527 4.87 2.9 4.87 7.12v3.744H.544v4.852h4.324v11.812h5.274V15.715h3.955Z"/></symbol>
<symbol id="fish-decor" viewBox="0 0 146 76"><path d="m1.1 15.5 4.796 50 23.026 4 20.146-4L107.59 74l36.456-14-18.707-44.5L85.045 2 49.068 8.5 1.1 15.5Z" stroke-opacity=".58" stroke-linecap="round"/></symbol>
<symbol id="instagram" viewBox="0 0 25 24"><path d="M12.822 5.963c-3.375 0-6.064 2.742-6.064 6.064a6.032 6.032 0 0 0 6.064 6.065c3.323 0 6.065-2.69 6.065-6.065 0-3.322-2.742-6.064-6.065-6.064Zm0 10.02a3.95 3.95 0 0 1-3.955-3.956c0-2.162 1.74-3.902 3.955-3.902a3.894 3.894 0 0 1 3.903 3.902c0 2.215-1.74 3.955-3.903 3.955Zm7.7-10.231c0-.791-.633-1.424-1.424-1.424-.791 0-1.424.633-1.424 1.424 0 .791.633 1.424 1.424 1.424.79 0 1.424-.633 1.424-1.424Zm4.007 1.424c-.105-1.899-.527-3.586-1.898-4.957S19.572.426 17.674.32C15.723.215 9.869.215 7.918.32 6.02.426 4.385.848 2.961 2.22 1.59 3.589 1.168 5.277 1.063 7.176c-.106 1.951-.106 7.804 0 9.756.105 1.898.527 3.533 1.898 4.957 1.424 1.37 3.059 1.793 4.957 1.898 1.951.106 7.805.106 9.756 0 1.898-.105 3.586-.527 4.957-1.898 1.371-1.424 1.793-3.059 1.898-4.957.106-1.951.106-7.805 0-9.756ZM22 18.988c-.37 1.055-1.214 1.846-2.216 2.268-1.582.633-5.273.474-6.96.474-1.74 0-5.432.159-6.962-.474a3.998 3.998 0 0 1-2.267-2.268c-.633-1.529-.475-5.22-.475-6.96 0-1.688-.158-5.38.475-6.962A4.068 4.068 0 0 1 5.86 2.852c1.53-.633 5.221-.475 6.961-.475 1.688 0 5.38-.158 6.961.475 1.002.369 1.793 1.212 2.215 2.214.633 1.582.475 5.274.475 6.961 0 1.74.158 5.432-.475 6.961Z"/></symbol>
<symbol id="pork-decor" viewBox="0 0 227 86"><path d="M51.323 84.5 5.753 64 1.436 14H55.16L88.26 1.5 158.293 14l59.002-5.5 8.155 62-31.66 3h-82.026l-60.441 11Z" stroke-opacity=".58" stroke-linecap="round"/></symbol>
<symbol id="products-decor" viewBox="0 0 413 108"><path d="m1.936 21.285 25.31 69.563 52.568 6.198 118.765-6.198L282.299 106l116.818-15.152L411.589 23.5 301.768 2 198.579 12.331 71.053 6.821 1.936 21.285Z" stroke-opacity=".43" stroke-linecap="round"/></symbol>
<symbol id="products-top" viewBox="0 0 1920 197"><path clip-rule="evenodd" d="M1561.5 104.594 1920 22.006V197H0V0l382 59.364L991.5 5.867l570 98.727Z"/></symbol>
<symbol id="to-top-arrow" viewBox="0 0 25 22"><path d="M9.605 2.692 0 12.301v9.239L12.296 9.083 24.592 21.54V12.3l-9.605-9.608L12.296.001 9.605 2.692Z"/></symbol>
<symbol id="to-top-btn-border" viewBox="0 0 48 192"><path clip-rule="evenodd" d="M48 .082 4.889 25.717A10 10 0 0 0 0 34.313V182c0 5.523 4.477 10 10 10h38v-4H10a6 6 0 0 1-6-6V34.312a6 6 0 0 1 2.933-5.157L48 4.735V.083Z"/></symbol>
<symbol id="vk" viewBox="0 0 19 22"><path d="M1.56.564A.894.894 0 0 0 .938.82a.887.887 0 0 0-.191.282.828.828 0 0 0-.068.333v19.13a.856.856 0 0 0 .26.615.873.873 0 0 0 .45.238.893.893 0 0 0 .173.017h7.761c3.653 0 5.963-.923 7.324-2.33 1.36-1.407 1.67-3.183 1.67-4.593 0-1.467-.682-2.803-1.651-3.782a5.847 5.847 0 0 0-1.725-1.204c.141-.132.263-.132.399-.292.661-.782 1.197-1.932 1.197-3.417 0-1.25-.393-2.291-1.034-3.06-.641-.767-1.495-1.254-2.368-1.568C11.387.558 9.489.564 8.42.564h-6.86Zm.883 1.74H8.42c1.05 0 2.769.035 4.108.517.67.242 1.229.582 1.612 1.042.384.459.63 1.042.63 1.953 0 1.089-.355 1.793-.786 2.302-.432.51-.973.812-1.261.93a.88.88 0 0 0-.508.55.85.85 0 0 0-.038.253v.105a.858.858 0 0 0 .392.723.878.878 0 0 0 .49.147c.74 0 1.649.418 2.342 1.12.694.7 1.15 1.642 1.15 2.565 0 1.165-.24 2.417-1.183 3.392-.943.975-2.69 1.792-6.047 1.792h-6.88V2.303Zm4.409 1.738a.893.893 0 0 0-.733.387.875.875 0 0 0-.15.483V8.39a.871.871 0 0 0 .152.487.846.846 0 0 0 .247.24.862.862 0 0 0 .494.143s1.65-.017 1.883-.017c1.012 0 1.795-.535 2.143-1.11a2.556 2.556 0 0 0 .373-1.361c0-.113.015-.727-.3-1.38-.317-.652-1.139-1.35-2.275-1.35H6.852Zm.882 1.74h.952c.55 0 .573.133.683.36.11.227.129.542.129.63 0 .044-.034.321-.124.47-.091.15-.126.262-.629.262-.165 0-.554.004-1.011.008v-1.73Zm-.875 5.217a.863.863 0 0 0-.34.065.867.867 0 0 0-.55.804v5.218a.845.845 0 0 0 .07.337.863.863 0 0 0 .486.47.855.855 0 0 0 .342.063s2.241-.04 2.63-.04c1.396 0 2.411-.674 2.92-1.446.51-.773.608-1.555.608-2.05 0-.687-.173-1.497-.721-2.197-.55-.699-1.512-1.205-2.726-1.205-.448 0-2.72-.019-2.72-.019Zm.875 1.746c.698.006 1.51.012 1.844.012.773 0 1.094.23 1.33.532.237.301.353.756.353 1.13 0 .203-.08.736-.322 1.103s-.55.655-1.441.655c-.327 0-1.085.014-1.764.026v-3.458Z"/></symbol>
</svg>