<svg width="25" height="24" viewBox="0 0 25 24" xmlns="http://www.w3.org/2000/svg">
<path d="M12.8223 5.96289C9.44731 5.96289 6.75785 8.70508 6.75785 12.0273C6.75785 15.4023 9.44731 18.0918 12.8223 18.0918C16.1446 18.0918 18.8868 15.4023 18.8868 12.0273C18.8868 8.70508 16.1446 5.96289 12.8223 5.96289ZM12.8223 15.9824C10.6602 15.9824 8.86723 14.2422 8.86723 12.0273C8.86723 9.86523 10.6075 8.125 12.8223 8.125C14.9844 8.125 16.7247 9.86523 16.7247 12.0273C16.7247 14.2422 14.9844 15.9824 12.8223 15.9824ZM20.5215 5.75195C20.5215 4.96094 19.8887 4.32812 19.0977 4.32812C18.3067 4.32812 17.6739 4.96094 17.6739 5.75195C17.6739 6.54297 18.3067 7.17578 19.0977 7.17578C19.8887 7.17578 20.5215 6.54297 20.5215 5.75195ZM24.5293 7.17578C24.4239 5.27734 24.002 3.58984 22.6309 2.21875C21.2598 0.847656 19.5723 0.425781 17.6739 0.320312C15.7227 0.214844 9.86918 0.214844 7.91801 0.320312C6.01957 0.425781 4.38481 0.847656 2.96098 2.21875C1.58989 3.58984 1.16801 5.27734 1.06254 7.17578C0.957073 9.12695 0.957073 14.9805 1.06254 16.9316C1.16801 18.8301 1.58989 20.4648 2.96098 21.8887C4.38481 23.2598 6.01957 23.6816 7.91801 23.7871C9.86918 23.8926 15.7227 23.8926 17.6739 23.7871C19.5723 23.6816 21.2598 23.2598 22.6309 21.8887C24.002 20.4648 24.4239 18.8301 24.5293 16.9316C24.6348 14.9805 24.6348 9.12695 24.5293 7.17578ZM21.9981 18.9883C21.6289 20.043 20.7852 20.834 19.7832 21.2559C18.2012 21.8887 14.5098 21.7305 12.8223 21.7305C11.0821 21.7305 7.39067 21.8887 5.86137 21.2559C4.80668 20.834 4.01567 20.043 3.59379 18.9883C2.96098 17.459 3.11918 13.7676 3.11918 12.0273C3.11918 10.3398 2.96098 6.64844 3.59379 5.06641C4.01567 4.06445 4.80668 3.27344 5.86137 2.85156C7.39067 2.21875 11.0821 2.37695 12.8223 2.37695C14.5098 2.37695 18.2012 2.21875 19.7832 2.85156C20.7852 3.2207 21.5762 4.06445 21.9981 5.06641C22.6309 6.64844 22.4727 10.3398 22.4727 12.0273C22.4727 13.7676 22.6309 17.459 21.9981 18.9883Z"/>
</svg>
