<svg width="19" height="22" viewBox="0 0 19 22" xmlns="http://www.w3.org/2000/svg">
<path d="M1.56073 0.564455C1.50253 0.564455 1.4453 0.56976 1.38857 0.580852C1.33183 0.591943 1.27657 0.608822 1.22325 0.630524C1.16945 0.652225 1.11859 0.679231 1.07066 0.71106C1.02224 0.742406 0.977731 0.778575 0.937136 0.819084C0.896052 0.859593 0.859369 0.903478 0.827089 0.950739C0.795298 0.998482 0.767908 1.04816 0.745899 1.1012C0.723401 1.15377 0.706773 1.20826 0.695524 1.2642C0.684275 1.32015 0.678406 1.37657 0.678406 1.43396V20.5645C0.678406 20.6214 0.684275 20.6778 0.695524 20.7337C0.706773 20.7902 0.723401 20.8442 0.745899 20.8972C0.767908 20.9498 0.795298 20.9999 0.827089 21.0472C0.859369 21.0949 0.896052 21.1388 0.937136 21.1793C0.977731 21.2194 1.02224 21.2555 1.07066 21.2874C1.11859 21.3192 1.16945 21.3457 1.22325 21.3679C1.27657 21.3896 1.33183 21.406 1.38857 21.4171C1.4453 21.4282 1.50253 21.434 1.56073 21.434H9.32214C12.9752 21.434 15.2852 20.5109 16.6458 19.1037C18.0065 17.6965 18.3166 15.9208 18.3166 14.5112C18.3166 13.0437 17.6338 11.7084 16.6649 10.7289C16.1636 10.2225 15.5757 9.81455 14.9404 9.52472C15.0812 9.39306 15.2025 9.39306 15.3385 9.23295C16.0002 8.45122 16.5358 7.30057 16.5358 5.81571C16.5358 4.56667 16.1435 3.52452 15.5023 2.75678C14.8606 1.98903 14.0072 1.50195 13.1336 1.18753C11.3871 0.558668 9.48892 0.564455 8.42123 0.564455H1.56073ZM2.44256 2.30346H8.42123C9.47132 2.30346 11.1895 2.33915 12.5291 2.8214C13.1992 3.06253 13.7577 3.40348 14.1412 3.86258C14.5246 4.32169 14.7716 4.90473 14.7716 5.81571C14.7716 6.90464 14.4165 7.60873 13.9847 8.11847C13.5528 8.62869 13.0119 8.9301 12.7238 9.04777C12.6431 9.08056 12.5687 9.12397 12.5012 9.17846C12.4338 9.23295 12.3755 9.29613 12.3271 9.36751C12.2787 9.43888 12.2415 9.51604 12.2161 9.5985C12.1907 9.68049 12.178 9.76488 12.178 9.8512V9.95633C12.178 10.0132 12.1833 10.0701 12.1946 10.1261C12.2058 10.182 12.223 10.2365 12.245 10.2891C12.267 10.3417 12.2944 10.3918 12.3266 10.4396C12.3584 10.4868 12.3951 10.5307 12.4362 10.5712C12.4773 10.6117 12.5218 10.6474 12.5697 10.6792C12.6176 10.7111 12.6685 10.7376 12.7223 10.7598C12.7756 10.7815 12.8309 10.7979 12.8876 10.809C12.9444 10.8201 13.0016 10.8258 13.0598 10.8258C13.8003 10.8258 14.7085 11.244 15.4021 11.9451C16.0961 12.6463 16.5529 13.5877 16.5529 14.5112C16.5529 15.6759 16.3127 16.9278 15.3693 17.9029C14.4263 18.878 12.6798 19.695 9.32214 19.695H2.44256V2.30346ZM6.85173 4.04246C6.79402 4.04246 6.7368 4.04825 6.68006 4.05934C6.62284 4.07043 6.56806 4.08683 6.51426 4.10902C6.46095 4.13072 6.41008 4.15724 6.36215 4.18907C6.31373 4.2209 6.26923 4.25707 6.22814 4.29709C6.18755 4.3376 6.15087 4.38149 6.11859 4.42923C6.08631 4.47649 6.0594 4.52665 6.03691 4.57921C6.0149 4.63226 5.99827 4.68627 5.98702 4.7427C5.97577 4.79864 5.9699 4.85506 5.9699 4.91197V8.39046C5.9699 8.44785 5.97577 8.50475 5.98702 8.56118C5.99876 8.6176 6.01588 8.67258 6.03837 8.72563C6.06087 8.77867 6.08826 8.82883 6.12103 8.87657C6.15331 8.92431 6.19048 8.9682 6.23205 9.00871C6.27363 9.04922 6.31862 9.08538 6.36753 9.11673C6.41595 9.14856 6.46731 9.17508 6.5216 9.19679C6.57589 9.21801 6.63164 9.2344 6.68887 9.24501C6.74609 9.25562 6.8038 9.26044 6.86249 9.25996C6.86249 9.25996 8.51123 9.24308 8.74501 9.24308C9.75695 9.24308 10.5395 8.70826 10.8877 8.1339C11.236 7.55954 11.2614 7.03726 11.2614 6.77202C11.2614 6.65917 11.2756 6.04526 10.9601 5.39277C10.6442 4.74028 9.822 4.04246 8.68632 4.04246H6.85173ZM7.73357 5.78147H8.68632C9.23509 5.78147 9.25856 5.91457 9.36861 6.14171C9.47816 6.36885 9.49773 6.68425 9.49773 6.77202C9.49773 6.8159 9.46398 7.0932 9.3735 7.24221C9.28302 7.39123 9.24829 7.50359 8.74501 7.50359C8.58019 7.50359 8.19136 7.50794 7.73357 7.51228V5.78147ZM6.85858 10.999C6.80038 10.9985 6.74316 11.0038 6.68593 11.0149C6.62871 11.0255 6.57295 11.0419 6.51915 11.0636C6.46535 11.0848 6.414 11.1118 6.36558 11.1432C6.31716 11.175 6.27216 11.2112 6.23059 11.2512C6.1895 11.2917 6.15233 11.3361 6.12005 11.3833C6.08777 11.4311 6.06038 11.4812 6.03788 11.5343C6.01539 11.5873 5.99876 11.6418 5.98702 11.6982C5.97577 11.7547 5.9699 11.8111 5.9699 11.8685V17.086C5.9699 17.1438 5.97577 17.2007 5.98751 17.2576C5.99876 17.3141 6.01587 17.369 6.03886 17.4226C6.06136 17.4756 6.08924 17.5263 6.12201 17.574C6.15478 17.6217 6.19195 17.6661 6.23401 17.7061C6.27558 17.7467 6.32107 17.7828 6.36998 17.8142C6.41889 17.846 6.47073 17.8725 6.52502 17.8937C6.5798 17.9154 6.63556 17.9314 6.69327 17.9415C6.75098 17.9521 6.80869 17.9564 6.86738 17.9555C6.86738 17.9555 9.10841 17.9164 9.49773 17.9164C10.8931 17.9164 11.908 17.2422 12.4171 16.4696C12.9263 15.6966 13.0251 14.9149 13.0251 14.4196C13.0251 13.7333 12.8524 12.9232 12.3037 12.2234C11.7544 11.5241 10.7924 11.0178 9.57843 11.0178C9.12993 11.0178 6.85858 10.999 6.85858 10.999ZM7.73357 12.7452C8.43199 12.7505 9.2434 12.7568 9.57843 12.7568C10.3507 12.7568 10.6715 12.9868 10.9083 13.2887C11.145 13.5901 11.2614 14.0449 11.2614 14.4196C11.2614 14.6216 11.1807 15.155 10.9391 15.522C10.6975 15.8885 10.3898 16.1774 9.49773 16.1774C9.17101 16.1774 8.41341 16.1914 7.73357 16.203V12.7452Z" />
</svg>
